<?xml version="1.0" encoding="UTF-8" standalone="no"?>
<svg width="458.258mm" height="311.856mm"
 viewBox="0 0 1299 884"
 xmlns="http://www.w3.org/2000/svg" xmlns:xlink="http://www.w3.org/1999/xlink"  version="1.2" baseProfile="tiny">
<title>Qt SVG Document</title>
<desc>MATLAB, The MathWorks, Inc. Version 25.1.0.2833191 R2025a Prerelease Update 2</desc>
<defs>
</defs>
<g fill="none" stroke="black" stroke-width="1" fill-rule="evenodd" stroke-linecap="square" stroke-linejoin="bevel" >

<g fill="#ffffff" fill-opacity="1" stroke="none" transform="matrix(0.510343,0,0,0.521623,-153.134,-51.184)"
font-family=".AppleSystemUIFont" font-size="13" font-weight="400" font-style="normal" 
>
<path vector-effect="none" fill-rule="evenodd" d="M300,98 L2844,98 L2844,1792 L300,1792 L300,98"/>
</g>

<g fill="#ffffff" fill-opacity="1" stroke="none" transform="matrix(5.10343e-05,0,0,5.21623e-05,-153.134,-51.184)"
font-family=".AppleSystemUIFont" font-size="13" font-weight="400" font-style="normal" 
>
<path vector-effect="none" fill-rule="evenodd" d="M4.08e+06,1.42e+06 L4.08e+06,1.685e+07 L2.84e+07,1.685e+07 L2.84e+07,1.42e+06 L4.08e+06,1.42e+06"/>
</g>

<g fill="#212121" fill-opacity="0.14902" stroke="#212121" stroke-opacity="0.14902" stroke-dasharray="10,6" stroke-dashoffset="0" stroke-width="2" stroke-linecap="butt" stroke-linejoin="round" transform="matrix(0.510343,0,0,0.521623,-153.134,-51.184)"
font-family=".AppleSystemUIFont" font-size="13" font-weight="400" font-style="normal" 
>
<polyline fill="none" vector-effect="none" points="408,142 408,1685 " />
<polyline fill="none" vector-effect="none" points="652.611,142 652.611,1685 " />
<polyline fill="none" vector-effect="none" points="897.222,142 897.222,1685 " />
<polyline fill="none" vector-effect="none" points="1141.83,142 1141.83,1685 " />
<polyline fill="none" vector-effect="none" points="1386.44,142 1386.44,1685 " />
<polyline fill="none" vector-effect="none" points="1631.05,142 1631.05,1685 " />
<polyline fill="none" vector-effect="none" points="1875.66,142 1875.66,1685 " />
<polyline fill="none" vector-effect="none" points="2120.28,142 2120.28,1685 " />
<polyline fill="none" vector-effect="none" points="2364.89,142 2364.89,1685 " />
<polyline fill="none" vector-effect="none" points="2609.5,142 2609.5,1685 " />
<polyline fill="none" vector-effect="none" points="408,1685 2840,1685 " />
<polyline fill="none" vector-effect="none" points="408,1530.7 2840,1530.7 " />
<polyline fill="none" vector-effect="none" points="408,1376.4 2840,1376.4 " />
<polyline fill="none" vector-effect="none" points="408,1222.1 2840,1222.1 " />
<polyline fill="none" vector-effect="none" points="408,1067.8 2840,1067.8 " />
<polyline fill="none" vector-effect="none" points="408,913.5 2840,913.5 " />
<polyline fill="none" vector-effect="none" points="408,759.2 2840,759.2 " />
<polyline fill="none" vector-effect="none" points="408,604.9 2840,604.9 " />
<polyline fill="none" vector-effect="none" points="408,450.6 2840,450.6 " />
<polyline fill="none" vector-effect="none" points="408,296.3 2840,296.3 " />
<polyline fill="none" vector-effect="none" points="408,142 2840,142 " />
</g>

<g fill="#212121" fill-opacity="1" stroke="#212121" stroke-opacity="1" stroke-width="1" stroke-linecap="square" stroke-linejoin="bevel" transform="matrix(0.510343,0,0,0.521623,614.167,877.305)"
font-family="Times New Roman" font-size="40" font-weight="400" font-style="normal" 
>
<text fill="#212121" fill-opacity="1" stroke="none" xml:space="preserve" x="0" y="-0.359375" font-family="Times New Roman" font-size="40" font-weight="400" font-style="normal" 
 >Angle (degree)</text>
</g>

<g fill="#212121" fill-opacity="1" stroke="#212121" stroke-opacity="1" stroke-width="2" stroke-linecap="butt" stroke-linejoin="round" transform="matrix(0.510343,0,0,0.521623,-153.134,-51.184)"
font-family="Times New Roman" font-size="40" font-weight="400" font-style="normal" 
>
<polyline fill="none" vector-effect="none" points="408,1685 2840,1685 " />
<polyline fill="none" vector-effect="none" points="408,142 2840,142 " />
<polyline fill="none" vector-effect="none" points="408,1685 408,1660.68 " />
<polyline fill="none" vector-effect="none" points="408,166.32 408,142 " />
<polyline fill="none" vector-effect="none" points="652.611,1685 652.611,1660.68 " />
<polyline fill="none" vector-effect="none" points="652.611,166.32 652.611,142 " />
<polyline fill="none" vector-effect="none" points="897.222,1685 897.222,1660.68 " />
<polyline fill="none" vector-effect="none" points="897.222,166.32 897.222,142 " />
<polyline fill="none" vector-effect="none" points="1141.83,1685 1141.83,1660.68 " />
<polyline fill="none" vector-effect="none" points="1141.83,166.32 1141.83,142 " />
<polyline fill="none" vector-effect="none" points="1386.44,1685 1386.44,1660.68 " />
<polyline fill="none" vector-effect="none" points="1386.44,166.32 1386.44,142 " />
<polyline fill="none" vector-effect="none" points="1631.05,1685 1631.05,1660.68 " />
<polyline fill="none" vector-effect="none" points="1631.05,166.32 1631.05,142 " />
<polyline fill="none" vector-effect="none" points="1875.66,1685 1875.66,1660.68 " />
<polyline fill="none" vector-effect="none" points="1875.66,166.32 1875.66,142 " />
<polyline fill="none" vector-effect="none" points="2120.28,1685 2120.28,1660.68 " />
<polyline fill="none" vector-effect="none" points="2120.28,166.32 2120.28,142 " />
<polyline fill="none" vector-effect="none" points="2364.89,1685 2364.89,1660.68 " />
<polyline fill="none" vector-effect="none" points="2364.89,166.32 2364.89,142 " />
<polyline fill="none" vector-effect="none" points="2609.5,1685 2609.5,1660.68 " />
<polyline fill="none" vector-effect="none" points="2609.5,166.32 2609.5,142 " />
</g>

<g fill="#212121" fill-opacity="1" stroke="#212121" stroke-opacity="1" stroke-width="1" stroke-linecap="square" stroke-linejoin="bevel" transform="matrix(0.510343,0,0,0.521623,36.4585,852.789)"
font-family="Times New Roman" font-size="40" font-weight="400" font-style="normal" 
>
<text fill="#212121" fill-opacity="1" stroke="none" xml:space="preserve" x="0" y="-0.359375" font-family="Times New Roman" font-size="40" font-weight="400" font-style="normal" 
 >-100</text>
</g>

<g fill="#212121" fill-opacity="1" stroke="#212121" stroke-opacity="1" stroke-width="1" stroke-linecap="square" stroke-linejoin="bevel" transform="matrix(0.510343,0,0,0.521623,166.397,852.789)"
font-family="Times New Roman" font-size="40" font-weight="400" font-style="normal" 
>
<text fill="#212121" fill-opacity="1" stroke="none" xml:space="preserve" x="0" y="-0.359375" font-family="Times New Roman" font-size="40" font-weight="400" font-style="normal" 
 >-80</text>
</g>

<g fill="#212121" fill-opacity="1" stroke="#212121" stroke-opacity="1" stroke-width="1" stroke-linecap="square" stroke-linejoin="bevel" transform="matrix(0.510343,0,0,0.521623,291.233,852.789)"
font-family="Times New Roman" font-size="40" font-weight="400" font-style="normal" 
>
<text fill="#212121" fill-opacity="1" stroke="none" xml:space="preserve" x="0" y="-0.359375" font-family="Times New Roman" font-size="40" font-weight="400" font-style="normal" 
 >-60</text>
</g>

<g fill="#212121" fill-opacity="1" stroke="#212121" stroke-opacity="1" stroke-width="1" stroke-linecap="square" stroke-linejoin="bevel" transform="matrix(0.510343,0,0,0.521623,416.068,852.789)"
font-family="Times New Roman" font-size="40" font-weight="400" font-style="normal" 
>
<text fill="#212121" fill-opacity="1" stroke="none" xml:space="preserve" x="0" y="-0.359375" font-family="Times New Roman" font-size="40" font-weight="400" font-style="normal" 
 >-40</text>
</g>

<g fill="#212121" fill-opacity="1" stroke="#212121" stroke-opacity="1" stroke-width="1" stroke-linecap="square" stroke-linejoin="bevel" transform="matrix(0.510343,0,0,0.521623,540.903,852.789)"
font-family="Times New Roman" font-size="40" font-weight="400" font-style="normal" 
>
<text fill="#212121" fill-opacity="1" stroke="none" xml:space="preserve" x="0" y="-0.359375" font-family="Times New Roman" font-size="40" font-weight="400" font-style="normal" 
 >-20</text>
</g>

<g fill="#212121" fill-opacity="1" stroke="#212121" stroke-opacity="1" stroke-width="1" stroke-linecap="square" stroke-linejoin="bevel" transform="matrix(0.510343,0,0,0.521623,674.159,852.789)"
font-family="Times New Roman" font-size="40" font-weight="400" font-style="normal" 
>
<text fill="#212121" fill-opacity="1" stroke="none" xml:space="preserve" x="0" y="-0.359375" font-family="Times New Roman" font-size="40" font-weight="400" font-style="normal" 
 >0</text>
</g>

<g fill="#212121" fill-opacity="1" stroke="#212121" stroke-opacity="1" stroke-width="1" stroke-linecap="square" stroke-linejoin="bevel" transform="matrix(0.510343,0,0,0.521623,793.891,852.789)"
font-family="Times New Roman" font-size="40" font-weight="400" font-style="normal" 
>
<text fill="#212121" fill-opacity="1" stroke="none" xml:space="preserve" x="0" y="-0.359375" font-family="Times New Roman" font-size="40" font-weight="400" font-style="normal" 
 >20</text>
</g>

<g fill="#212121" fill-opacity="1" stroke="#212121" stroke-opacity="1" stroke-width="1" stroke-linecap="square" stroke-linejoin="bevel" transform="matrix(0.510343,0,0,0.521623,918.727,852.789)"
font-family="Times New Roman" font-size="40" font-weight="400" font-style="normal" 
>
<text fill="#212121" fill-opacity="1" stroke="none" xml:space="preserve" x="0" y="-0.359375" font-family="Times New Roman" font-size="40" font-weight="400" font-style="normal" 
 >40</text>
</g>

<g fill="#212121" fill-opacity="1" stroke="#212121" stroke-opacity="1" stroke-width="1" stroke-linecap="square" stroke-linejoin="bevel" transform="matrix(0.510343,0,0,0.521623,1043.56,852.789)"
font-family="Times New Roman" font-size="40" font-weight="400" font-style="normal" 
>
<text fill="#212121" fill-opacity="1" stroke="none" xml:space="preserve" x="0" y="-0.359375" font-family="Times New Roman" font-size="40" font-weight="400" font-style="normal" 
 >60</text>
</g>

<g fill="#212121" fill-opacity="1" stroke="#212121" stroke-opacity="1" stroke-width="1" stroke-linecap="square" stroke-linejoin="bevel" transform="matrix(0.510343,0,0,0.521623,1168.4,852.789)"
font-family="Times New Roman" font-size="40" font-weight="400" font-style="normal" 
>
<text fill="#212121" fill-opacity="1" stroke="none" xml:space="preserve" x="0" y="-0.359375" font-family="Times New Roman" font-size="40" font-weight="400" font-style="normal" 
 >80</text>
</g>

<g fill="#212121" fill-opacity="1" stroke="#212121" stroke-opacity="1" stroke-width="1" stroke-linecap="square" stroke-linejoin="bevel" transform="matrix(0,-0.521623,0.510343,0,15.7896,469.918)"
font-family="Times New Roman" font-size="40" font-weight="400" font-style="normal" 
>
<text fill="#212121" fill-opacity="1" stroke="none" xml:space="preserve" x="0" y="-0.359375" font-family="Times New Roman" font-size="40" font-weight="400" font-style="normal" 
 >Amplitude</text>
</g>

<g fill="#212121" fill-opacity="1" stroke="#212121" stroke-opacity="1" stroke-width="2" stroke-linecap="butt" stroke-linejoin="round" transform="matrix(0.510343,0,0,0.521623,-153.134,-51.184)"
font-family="Times New Roman" font-size="40" font-weight="400" font-style="normal" 
>
<polyline fill="none" vector-effect="none" points="408,1685 408,142 " />
<polyline fill="none" vector-effect="none" points="2840,1685 2840,142 " />
<polyline fill="none" vector-effect="none" points="408,1685 432.32,1685 " />
<polyline fill="none" vector-effect="none" points="2815.68,1685 2840,1685 " />
<polyline fill="none" vector-effect="none" points="408,1530.7 432.32,1530.7 " />
<polyline fill="none" vector-effect="none" points="2815.68,1530.7 2840,1530.7 " />
<polyline fill="none" vector-effect="none" points="408,1376.4 432.32,1376.4 " />
<polyline fill="none" vector-effect="none" points="2815.68,1376.4 2840,1376.4 " />
<polyline fill="none" vector-effect="none" points="408,1222.1 432.32,1222.1 " />
<polyline fill="none" vector-effect="none" points="2815.68,1222.1 2840,1222.1 " />
<polyline fill="none" vector-effect="none" points="408,1067.8 432.32,1067.8 " />
<polyline fill="none" vector-effect="none" points="2815.68,1067.8 2840,1067.8 " />
<polyline fill="none" vector-effect="none" points="408,913.5 432.32,913.5 " />
<polyline fill="none" vector-effect="none" points="2815.68,913.5 2840,913.5 " />
<polyline fill="none" vector-effect="none" points="408,759.2 432.32,759.2 " />
<polyline fill="none" vector-effect="none" points="2815.68,759.2 2840,759.2 " />
<polyline fill="none" vector-effect="none" points="408,604.9 432.32,604.9 " />
<polyline fill="none" vector-effect="none" points="2815.68,604.9 2840,604.9 " />
<polyline fill="none" vector-effect="none" points="408,450.6 432.32,450.6 " />
<polyline fill="none" vector-effect="none" points="2815.68,450.6 2840,450.6 " />
<polyline fill="none" vector-effect="none" points="408,296.3 432.32,296.3 " />
<polyline fill="none" vector-effect="none" points="2815.68,296.3 2840,296.3 " />
<polyline fill="none" vector-effect="none" points="408,142 432.32,142 " />
<polyline fill="none" vector-effect="none" points="2815.68,142 2840,142 " />
</g>

<g fill="#212121" fill-opacity="1" stroke="#212121" stroke-opacity="1" stroke-width="1" stroke-linecap="square" stroke-linejoin="bevel" transform="matrix(0.510343,0,0,0.521623,38.755,834.793)"
font-family="Times New Roman" font-size="40" font-weight="400" font-style="normal" 
>
<text fill="#212121" fill-opacity="1" stroke="none" xml:space="preserve" x="0" y="-0.359375" font-family="Times New Roman" font-size="40" font-weight="400" font-style="normal" 
 >0</text>
</g>

<g fill="#212121" fill-opacity="1" stroke="#212121" stroke-opacity="1" stroke-width="1" stroke-linecap="square" stroke-linejoin="bevel" transform="matrix(0.510343,0,0,0.521623,23.4448,754.307)"
font-family="Times New Roman" font-size="40" font-weight="400" font-style="normal" 
>
<text fill="#212121" fill-opacity="1" stroke="none" xml:space="preserve" x="0" y="-0.359375" font-family="Times New Roman" font-size="40" font-weight="400" font-style="normal" 
 >0.5</text>
</g>

<g fill="#212121" fill-opacity="1" stroke="#212121" stroke-opacity="1" stroke-width="1" stroke-linecap="square" stroke-linejoin="bevel" transform="matrix(0.510343,0,0,0.521623,38.755,673.82)"
font-family="Times New Roman" font-size="40" font-weight="400" font-style="normal" 
>
<text fill="#212121" fill-opacity="1" stroke="none" xml:space="preserve" x="0" y="-0.359375" font-family="Times New Roman" font-size="40" font-weight="400" font-style="normal" 
 >1</text>
</g>

<g fill="#212121" fill-opacity="1" stroke="#212121" stroke-opacity="1" stroke-width="1" stroke-linecap="square" stroke-linejoin="bevel" transform="matrix(0.510343,0,0,0.521623,23.4448,593.334)"
font-family="Times New Roman" font-size="40" font-weight="400" font-style="normal" 
>
<text fill="#212121" fill-opacity="1" stroke="none" xml:space="preserve" x="0" y="-0.359375" font-family="Times New Roman" font-size="40" font-weight="400" font-style="normal" 
 >1.5</text>
</g>

<g fill="#212121" fill-opacity="1" stroke="#212121" stroke-opacity="1" stroke-width="1" stroke-linecap="square" stroke-linejoin="bevel" transform="matrix(0.510343,0,0,0.521623,38.755,512.847)"
font-family="Times New Roman" font-size="40" font-weight="400" font-style="normal" 
>
<text fill="#212121" fill-opacity="1" stroke="none" xml:space="preserve" x="0" y="-0.359375" font-family="Times New Roman" font-size="40" font-weight="400" font-style="normal" 
 >2</text>
</g>

<g fill="#212121" fill-opacity="1" stroke="#212121" stroke-opacity="1" stroke-width="1" stroke-linecap="square" stroke-linejoin="bevel" transform="matrix(0.510343,0,0,0.521623,23.4448,432.361)"
font-family="Times New Roman" font-size="40" font-weight="400" font-style="normal" 
>
<text fill="#212121" fill-opacity="1" stroke="none" xml:space="preserve" x="0" y="-0.359375" font-family="Times New Roman" font-size="40" font-weight="400" font-style="normal" 
 >2.5</text>
</g>

<g fill="#212121" fill-opacity="1" stroke="#212121" stroke-opacity="1" stroke-width="1" stroke-linecap="square" stroke-linejoin="bevel" transform="matrix(0.510343,0,0,0.521623,38.755,351.874)"
font-family="Times New Roman" font-size="40" font-weight="400" font-style="normal" 
>
<text fill="#212121" fill-opacity="1" stroke="none" xml:space="preserve" x="0" y="-0.359375" font-family="Times New Roman" font-size="40" font-weight="400" font-style="normal" 
 >3</text>
</g>

<g fill="#212121" fill-opacity="1" stroke="#212121" stroke-opacity="1" stroke-width="1" stroke-linecap="square" stroke-linejoin="bevel" transform="matrix(0.510343,0,0,0.521623,23.4448,271.388)"
font-family="Times New Roman" font-size="40" font-weight="400" font-style="normal" 
>
<text fill="#212121" fill-opacity="1" stroke="none" xml:space="preserve" x="0" y="-0.359375" font-family="Times New Roman" font-size="40" font-weight="400" font-style="normal" 
 >3.5</text>
</g>

<g fill="#212121" fill-opacity="1" stroke="#212121" stroke-opacity="1" stroke-width="1" stroke-linecap="square" stroke-linejoin="bevel" transform="matrix(0.510343,0,0,0.521623,38.755,190.901)"
font-family="Times New Roman" font-size="40" font-weight="400" font-style="normal" 
>
<text fill="#212121" fill-opacity="1" stroke="none" xml:space="preserve" x="0" y="-0.359375" font-family="Times New Roman" font-size="40" font-weight="400" font-style="normal" 
 >4</text>
</g>

<g fill="#212121" fill-opacity="1" stroke="#212121" stroke-opacity="1" stroke-width="1" stroke-linecap="square" stroke-linejoin="bevel" transform="matrix(0.510343,0,0,0.521623,23.4448,110.415)"
font-family="Times New Roman" font-size="40" font-weight="400" font-style="normal" 
>
<text fill="#212121" fill-opacity="1" stroke="none" xml:space="preserve" x="0" y="-0.359375" font-family="Times New Roman" font-size="40" font-weight="400" font-style="normal" 
 >4.5</text>
</g>

<g fill="#212121" fill-opacity="1" stroke="#212121" stroke-opacity="1" stroke-width="1" stroke-linecap="square" stroke-linejoin="bevel" transform="matrix(0.510343,0,0,0.521623,38.755,29.9284)"
font-family="Times New Roman" font-size="40" font-weight="400" font-style="normal" 
>
<text fill="#212121" fill-opacity="1" stroke="none" xml:space="preserve" x="0" y="-0.359375" font-family="Times New Roman" font-size="40" font-weight="400" font-style="normal" 
 >5</text>
</g>

<g fill="#212121" fill-opacity="1" stroke="#212121" stroke-opacity="1" stroke-width="1" stroke-linecap="square" stroke-linejoin="bevel" transform="matrix(0.510343,0,0,0.521623,545.781,15.5838)"
font-family="Times New Roman" font-size="40" font-weight="700" font-style="normal" 
>
<text fill="#212121" fill-opacity="1" stroke="none" xml:space="preserve" x="0" y="-0.359375" font-family="Times New Roman" font-size="40" font-weight="700" font-style="normal" 
 >Beamforming Pattern: NULL</text>
</g>

<g fill="#212121" fill-opacity="1" stroke="#212121" stroke-opacity="1" stroke-width="1" stroke-linecap="butt" stroke-linejoin="round" transform="matrix(0.510343,0,0,0.521623,-153.134,-51.184)"
font-family="Times New Roman" font-size="40" font-weight="700" font-style="normal" 
>
<polyline fill="none" vector-effect="none" points="408,1685 2840,1685 " />
</g>

<g fill="none" stroke="#1171be" stroke-opacity="1" stroke-width="4" stroke-linecap="butt" stroke-linejoin="round" transform="matrix(0.510343,0,0,0.521623,-153.134,-51.184)"
font-family="Times New Roman" font-size="40" font-weight="700" font-style="normal" 
>
<polyline fill="none" vector-effect="none" points="530.305,1570.24 561.277,1563.46 574.11,1556.81 583.959,1550.32 592.264,1544 599.583,1537.86 606.202,1531.91 612.29,1526.16 617.957,1520.63 623.282,1515.33 628.319,1510.27 633.112,1505.46 637.692,1500.92 642.086,1496.65 646.315,1492.66 650.396,1488.98 654.345,1485.6 658.173,1482.53 661.891,1479.8 665.508,1477.4 669.031,1475.35 672.469,1473.66 675.826,1472.33 679.109,1471.38 682.322,1470.82 685.469,1470.64 688.555,1470.87 691.583,1471.5 694.556,1472.55 697.477,1474.01 700.349,1475.91 703.174,1478.24 705.954,1481.01 708.693,1484.23 711.39,1487.89 714.049,1492.01 716.671,1496.59 719.257,1501.63 721.809,1507.13 724.329,1513.1 726.817,1519.55 729.274,1526.46 731.703,1533.85 734.103,1541.71 736.476,1550.04 738.823,1558.85 741.145,1568.13 743.442,1577.88 745.715,1588.1 747.965,1598.79 750.193,1609.94 752.4,1621.55 754.585,1633.6 756.75,1646.07 758.896,1658.91 761.022,1671.83 763.129,1679.56 765.218,1668.08 767.289,1653.69 769.343,1638.63 771.381,1623.09 773.402,1607.11 775.406,1590.72 777.396,1573.92 779.37,1556.74 781.329,1539.17 783.274,1521.24 785.204,1502.95 787.121,1484.32 789.024,1465.35 790.914,1446.06 792.79,1426.46 794.654,1406.56 796.506,1386.37 798.346,1365.91 800.173,1345.19 801.989,1324.22 803.793,1303.03 805.587,1281.61 807.369,1259.99 809.14,1238.19 810.901,1216.21 812.651,1194.07 814.392,1171.79 816.122,1149.38 817.842,1126.86 819.553,1104.24 821.254,1081.55 822.946,1058.8 824.629,1036 826.303,1013.18 827.968,990.339 829.624,967.508 831.272,944.7 832.911,921.933 834.542,899.224 836.165,876.589 837.779,854.048 839.386,831.616 840.986,809.312 842.577,787.153 844.161,765.156 845.738,743.338 847.307,721.718 848.869,700.311 850.424,679.134 851.972,658.206 853.513,637.542 855.047,617.16 856.575,597.075 858.096,577.305 859.61,557.864 861.118,538.769 862.62,520.036 864.116,501.68 865.605,483.716 867.088,466.159 868.565,449.023 870.037,432.324 871.502,416.074 872.962,400.287 874.416,384.977 875.865,370.157 877.307,355.839 878.745,342.035 880.177,328.757 881.603,316.016 883.025,303.824 884.441,292.191 885.852,281.127 887.258,270.641 888.659,260.743 890.055,251.441 891.446,242.744 892.832,234.659 894.213,227.194 895.59,220.355 896.961,214.149 898.329,208.581 899.691,203.657 901.049,199.381 902.403,195.757 903.752,192.789 905.097,190.48 906.438,188.833 907.774,187.849 909.106,187.53 910.433,187.878 911.757,188.891 913.076,190.57 914.392,192.915 915.703,195.923 917.01,199.594 918.314,203.925 919.613,208.912 920.909,214.552 922.201,220.842 923.489,227.777 924.773,235.351 926.053,243.56 927.33,252.396 928.603,261.853 929.873,271.925 931.139,282.603 932.401,293.88 933.66,305.746 934.916,318.193 936.168,331.21 937.416,344.789 938.661,358.918 939.903,373.587 941.142,388.784 942.377,404.497 943.609,420.714 944.838,437.422 946.064,454.61 947.286,472.262 948.505,490.366 949.721,508.907 950.934,527.871 952.144,547.243 953.352,567.009 954.555,587.152 955.756,607.658 956.954,628.51 958.15,649.693 959.342,671.189 960.531,692.983 961.718,715.058 962.901,737.396 964.082,759.981 965.26,782.795 966.435,805.822 967.608,829.042 968.778,852.439 969.945,875.996 971.109,899.693 972.271,923.514 973.43,947.44 974.587,971.454 975.741,995.538 976.892,1019.67 978.041,1043.84 979.187,1068.03 980.331,1092.21 981.472,1116.38 982.611,1140.5 983.747,1164.58 984.881,1188.58 986.013,1212.49 987.142,1236.29 988.269,1259.98 989.393,1283.52 990.515,1306.91 991.635,1330.12 992.752,1353.15 993.867,1375.97 994.98,1398.57 996.091,1420.94 997.199,1443.06 998.305,1464.91 999.409,1486.48 1000.51,1507.76 1001.61,1528.73 1002.71,1549.38 1003.8,1569.7 1004.9,1589.67 1005.99,1609.28 1007.08,1628.52 1008.16,1647.37 1009.25,1665.78 1010.33,1682.67 1011.41,1668.24 1012.49,1651.08 1013.57,1634.29 1014.64,1617.94 1015.71,1602.04 1016.78,1586.59 1017.85,1571.6 1018.92,1557.08 1019.98,1543.04 1021.05,1529.49 1022.11,1516.42 1023.17,1503.85 1024.22,1491.78 1025.28,1480.21 1026.33,1469.15 1027.38,1458.6 1028.43,1448.57 1029.48,1439.04 1030.53,1430.04 1031.57,1421.55 1032.61,1413.58 1033.66,1406.13 1034.69,1399.19 1035.73,1392.78 1036.77,1386.88 1037.8,1381.49 1038.83,1376.62 1039.86,1372.25 1040.89,1368.39 1041.92,1365.03 1042.94,1362.18 1043.97,1359.81 1044.99,1357.93 1046.01,1356.54 1047.03,1355.63 1048.05,1355.18 1049.06,1355.2 1050.07,1355.68 1051.09,1356.61 1052.1,1357.98 1053.11,1359.79 1054.11,1362.02 1055.12,1364.67 1056.12,1367.72 1057.13,1371.18 1058.13,1375.02 1059.13,1379.24 1060.13,1383.83 1061.12,1388.78 1062.12,1394.07 1063.11,1399.7 1064.1,1405.65 1065.1,1411.92 1066.08,1418.48 1067.07,1425.34 1068.06,1432.47 1069.04,1439.86 1070.03,1447.51 1071.01,1455.39 1071.99,1463.5 1072.97,1471.83 1073.95,1480.35 1074.92,1489.06 1075.9,1497.94 1076.87,1506.99 1077.85,1516.18 1078.82,1525.51 1079.79,1534.96 1080.75,1544.51 1081.72,1554.16 1082.69,1563.89 1083.65,1573.69 1084.61,1583.55 1085.58,1593.44 1086.54,1603.37 1087.5,1613.31 1088.45,1623.25 1089.41,1633.18 1090.37,1643.08 1091.32,1652.93 1092.27,1662.72 1093.22,1672.36 1094.17,1681.12 1095.12,1677.39 1096.07,1668.17 1097.02,1658.82 1097.96,1649.53 1098.91,1640.36 1099.85,1631.31 1100.79,1622.4 1101.73,1613.64 1102.67,1605.05 1103.61,1596.63 1104.55,1588.39 1105.48,1580.34 1106.42,1572.49 1107.35,1564.85 1108.28,1557.42 1109.22,1550.22 1110.15,1543.25 1111.07,1536.52 1112,1530.02 1112.93,1523.78 1113.85,1517.8 1114.78,1512.07 1115.7,1506.61 1116.62,1501.42 1117.55,1496.51 1118.47,1491.87 1119.39,1487.52 1120.3,1483.45 1121.22,1479.67 1122.14,1476.18 1123.05,1472.98 1123.96,1470.07 1124.88,1467.46 1125.79,1465.15 1126.7,1463.13 1127.61,1461.41 1128.52,1459.99 1129.42,1458.86 1130.33,1458.03 1131.24,1457.49 1132.14,1457.24 1133.04,1457.29 1133.95,1457.62 1134.85,1458.24 1135.75,1459.14 1136.65,1460.32 1137.55,1461.77 1138.44,1463.5 1139.34,1465.49 1140.24,1467.75 1141.13,1470.26 1142.02,1473.03 1142.92,1476.04 1143.81,1479.3 1144.7,1482.79 1145.59,1486.52 1146.48,1490.46 1147.37,1494.62 1148.25,1499 1149.14,1503.57 1150.02,1508.34 1150.91,1513.3 1151.79,1518.44 1152.67,1523.76 1153.56,1529.23 1154.44,1534.87 1155.32,1540.65 1156.19,1546.58 1157.07,1552.63 1157.95,1558.81 1158.83,1565.1 1159.7,1571.49 1160.58,1577.98 1161.45,1584.56 1162.32,1591.22 1163.19,1597.94 1164.07,1604.72 1164.94,1611.55 1165.8,1618.42 1166.67,1625.31 1167.54,1632.21 1168.41,1639.12 1169.27,1646 1170.14,1652.83 1171,1659.58 1171.87,1666.13 1172.73,1672.21 1173.59,1676.78 1174.45,1676.86 1175.31,1672.43 1176.17,1666.55 1177.03,1660.29 1177.89,1653.94 1178.75,1647.58 1179.6,1641.26 1180.46,1635.02 1181.31,1628.86 1182.17,1622.81 1183.02,1616.87 1183.87,1611.04 1184.72,1605.35 1185.57,1599.79 1186.42,1594.38 1187.27,1589.11 1188.12,1584 1188.97,1579.06 1189.82,1574.28 1190.66,1569.67 1191.51,1565.24 1192.35,1560.99 1193.2,1556.93 1194.04,1553.06 1194.88,1549.38 1195.73,1545.9 1196.57,1542.63 1197.41,1539.55 1198.25,1536.68 1199.09,1534.02 1199.92,1531.57 1200.76,1529.34 1201.6,1527.32 1202.44,1525.51 1203.27,1523.92 1204.11,1522.54 1204.94,1521.39 1205.77,1520.45 1206.61,1519.73 1207.44,1519.22 1208.27,1518.94 1209.1,1518.86 1209.93,1519.01 1210.76,1519.36 1211.59,1519.92 1212.42,1520.7 1213.24,1521.68 1214.07,1522.86 1214.9,1524.25 1215.72,1525.83 1216.55,1527.61 1217.37,1529.58 1218.19,1531.73 1219.02,1534.08 1219.84,1536.6 1220.66,1539.29 1221.48,1542.16 1222.3,1545.2 1223.12,1548.39 1223.94,1551.74 1224.76,1555.24 1225.58,1558.89 1226.39,1562.68 1227.21,1566.6 1228.03,1570.65 1228.84,1574.82 1229.66,1579.11 1230.47,1583.51 1231.28,1588.01 1232.1,1592.61 1232.91,1597.3 1233.72,1602.07 1234.53,1606.92 1235.34,1611.83 1236.15,1616.81 1236.96,1621.84 1237.77,1626.91 1238.58,1632.03 1239.38,1637.17 1240.19,1642.33 1241,1647.49 1241.8,1652.64 1242.61,1657.75 1243.41,1662.79 1244.22,1667.68 1245.02,1672.26 1245.82,1676.02 1246.63,1677.65 1247.43,1675.96 1248.23,1672.24 1249.03,1667.8 1249.83,1663.11 1250.63,1658.34 1251.43,1653.55 1252.23,1648.78 1253.02,1644.06 1253.82,1639.39 1254.62,1634.8 1255.41,1630.29 1256.21,1625.87 1257,1621.54 1257.8,1617.32 1258.59,1613.2 1259.39,1609.19 1260.18,1605.31 1260.97,1601.54 1261.76,1597.9 1262.56,1594.4 1263.35,1591.03 1264.14,1587.79 1264.93,1584.7 1265.72,1581.76 1266.51,1578.97 1267.29,1576.32 1268.08,1573.84 1268.87,1571.51 1269.66,1569.34 1270.44,1567.33 1271.23,1565.48 1272.01,1563.8 1272.8,1562.28 1273.58,1560.93 1274.37,1559.75 1275.15,1558.74 1275.93,1557.9 1276.72,1557.22 1277.5,1556.72 1278.28,1556.38 1279.06,1556.21 1279.84,1556.21 1280.62,1556.38 1281.4,1556.71 1282.18,1557.21 1282.96,1557.87 1283.74,1558.69 1284.51,1559.67 1285.29,1560.81 1286.07,1562.1 1286.85,1563.54 1287.62,1565.14 1288.4,1566.88 1289.17,1568.76 1289.95,1570.78 1290.72,1572.95 1291.49,1575.24 1292.27,1577.66 1293.04,1580.22 1293.81,1582.89 1294.58,1585.68 1295.35,1588.58 1296.13,1591.59 1296.9,1594.71 1297.67,1597.93 1298.44,1601.24 1299.21,1604.64 1299.97,1608.13 1300.74,1611.69 1301.51,1615.34 1302.28,1619.05 1303.04,1622.82 1303.81,1626.66 1304.58,1630.55 1305.34,1634.49 1306.11,1638.47 1306.87,1642.49 1307.64,1646.54 1308.4,1650.61 1309.17,1654.71 1309.93,1658.82 1310.69,1662.95 1311.45,1667.07 1312.22,1671.2 1312.98,1675.31 1313.74,1679.41 1314.5,1683.44 1315.26,1682.37 1316.02,1678.36 1316.78,1674.36 1317.54,1670.4 1318.3,1666.48 1319.06,1662.61 1319.81,1658.8 1320.57,1655.04 1321.33,1651.35 1322.09,1647.72 1322.84,1644.17 1323.6,1640.69 1324.35,1637.3 1325.11,1633.99 1325.87,1630.78 1326.62,1627.65 1327.37,1624.63 1328.13,1621.71 1328.88,1618.89 1329.63,1616.18 1330.39,1613.58 1331.14,1611.1 1331.89,1608.74 1332.64,1606.5 1333.39,1604.38 1334.15,1602.38 1334.9,1600.51 1335.65,1598.78 1336.4,1597.17 1337.15,1595.7 1337.89,1594.36 1338.64,1593.16 1339.39,1592.1 1340.14,1591.18 1340.89,1590.4 1341.63,1589.75 1342.38,1589.25 1343.13,1588.88 1343.87,1588.66 1344.62,1588.58 1345.37,1588.64 1346.11,1588.84 1346.86,1589.18 1347.6,1589.66 1348.34,1590.27 1349.09,1591.02 1349.83,1591.91 1350.58,1592.93 1351.32,1594.08 1352.06,1595.36 1352.8,1596.76 1353.55,1598.3 1354.29,1599.95 1355.03,1601.73 1355.77,1603.63 1356.51,1605.64 1357.25,1607.76 1357.99,1609.99 1358.73,1612.32 1359.47,1614.76 1360.21,1617.3 1360.95,1619.93 1361.68,1622.65 1362.42,1625.45 1363.16,1628.34 1363.9,1631.3 1364.64,1634.33 1365.37,1637.43 1366.11,1640.58 1366.84,1643.79 1367.58,1647.04 1368.32,1650.32 1369.05,1653.63 1369.79,1656.93 1370.52,1660.22 1371.26,1663.45 1371.99,1666.57 1372.72,1669.48 1373.46,1672.02 1374.19,1673.89 1374.92,1674.7 1375.66,1674.19 1376.39,1672.52 1377.12,1670.06 1377.85,1667.15 1378.58,1663.97 1379.31,1660.64 1380.04,1657.21 1380.78,1653.74 1381.51,1650.24 1382.24,1646.73 1382.97,1643.23 1383.69,1639.75 1384.42,1636.29 1385.15,1632.86 1385.88,1629.48 1386.61,1626.13 1387.34,1622.84 1388.07,1619.61 1388.79,1616.43 1389.52,1613.32 1390.25,1610.27 1390.97,1607.3 1391.7,1604.4 1392.43,1601.58 1393.15,1598.85 1393.88,1596.2 1394.6,1593.63 1395.33,1591.16 1396.05,1588.78 1396.78,1586.5 1397.5,1584.31 1398.23,1582.23 1398.95,1580.25 1399.67,1578.37 1400.4,1576.6 1401.12,1574.94 1401.84,1573.38 1402.57,1571.94 1403.29,1570.61 1404.01,1569.39 1404.73,1568.28 1405.45,1567.29 1406.17,1566.41 1406.9,1565.64 1407.62,1564.99 1408.34,1564.46 1409.06,1564.04 1409.78,1563.73 1410.5,1563.54 1411.22,1563.46 1411.94,1563.49 1412.65,1563.63 1413.37,1563.89 1414.09,1564.25 1414.81,1564.72 1415.53,1565.3 1416.25,1565.98 1416.96,1566.76 1417.68,1567.65 1418.4,1568.64 1419.12,1569.72 1419.83,1570.9 1420.55,1572.17 1421.27,1573.53 1421.98,1574.98 1422.7,1576.51 1423.41,1578.13 1424.13,1579.82 1424.84,1581.6 1425.56,1583.44 1426.27,1585.36 1426.99,1587.34 1427.7,1589.39 1428.42,1591.5 1429.13,1593.66 1429.84,1595.88 1430.56,1598.15 1431.27,1600.47 1431.98,1602.83 1432.7,1605.23 1433.41,1607.66 1434.12,1610.13 1434.83,1612.63 1435.55,1615.15 1436.26,1617.69 1436.97,1620.25 1437.68,1622.82 1438.39,1625.4 1439.1,1627.99 1439.81,1630.59 1440.52,1633.18 1441.23,1635.76 1441.94,1638.34 1442.65,1640.9 1443.36,1643.45 1444.07,1645.98 1444.78,1648.49 1445.49,1650.97 1446.2,1653.42 1446.91,1655.84 1447.62,1658.23 1448.33,1660.57 1449.03,1662.87 1449.74,1665.13 1450.45,1667.34 1451.16,1669.49 1451.86,1671.6 1452.57,1673.65 1453.28,1675.63 1453.99,1677.56 1454.69,1679.42 1455.4,1681.22 1456.11,1682.95 1456.81,1684.61 1457.52,1683.8 1458.22,1682.29 1458.93,1680.85 1459.63,1679.49 1460.34,1678.21 1461.04,1677.01 1461.75,1675.88 1462.45,1674.84 1463.16,1673.88 1463.86,1673.01 1464.57,1672.21 1465.27,1671.5 1465.98,1670.88 1466.68,1670.33 1467.38,1669.88 1468.09,1669.5 1468.79,1669.21 1469.49,1669 1470.2,1668.86 1470.9,1668.81 1471.6,1668.84 1472.3,1668.94 1473,1669.11 1473.71,1669.36 1474.41,1669.67 1475.11,1670.04 1475.81,1670.47 1476.51,1670.95 1477.21,1671.48 1477.92,1672.03 1478.62,1672.61 1479.32,1673.2 1480.02,1673.77 1480.72,1674.31 1481.42,1674.78 1482.12,1675.16 1482.82,1675.4 1483.52,1675.46 1484.22,1675.33 1484.92,1674.99 1485.62,1674.43 1486.32,1673.66 1487.02,1672.72 1487.71,1671.62 1488.41,1670.38 1489.11,1669.03 1489.81,1667.59 1490.51,1666.07 1491.21,1664.47 1491.91,1662.82 1492.6,1661.13 1493.3,1659.39 1494,1657.62 1494.7,1655.82 1495.39,1654 1496.09,1652.17 1496.79,1650.32 1497.49,1648.47 1498.18,1646.61 1498.88,1644.76 1499.58,1642.91 1500.27,1641.08 1500.97,1639.26 1501.67,1637.45 1502.36,1635.67 1503.06,1633.91 1503.75,1632.17 1504.45,1630.47 1505.14,1628.81 1505.84,1627.18 1506.54,1625.59 1507.23,1624.04 1507.93,1622.55 1508.62,1621.1 1509.32,1619.7 1510.01,1618.36 1510.7,1617.07 1511.4,1615.84 1512.09,1614.68 1512.79,1613.58 1513.48,1612.54 1514.18,1611.58 1514.87,1610.68 1515.56,1609.86 1516.26,1609.11 1516.95,1608.43 1517.64,1607.84 1518.34,1607.32 1519.03,1606.88 1519.72,1606.52 1520.42,1606.24 1521.11,1606.04 1521.8,1605.93 1522.5,1605.91 1523.19,1605.96 1523.88,1606.11 1524.57,1606.33 1525.27,1606.65 1525.96,1607.05 1526.65,1607.53 1527.34,1608.1 1528.03,1608.75 1528.72,1609.49 1529.42,1610.32 1530.11,1611.22 1530.8,1612.21 1531.49,1613.28 1532.18,1614.43 1532.87,1615.66 1533.56,1616.96 1534.26,1618.34 1534.95,1619.8 1535.64,1621.33 1536.33,1622.93 1537.02,1624.59 1537.71,1626.33 1538.4,1628.12 1539.09,1629.98 1539.78,1631.9 1540.47,1633.87 1541.16,1635.89 1541.85,1637.96 1542.54,1640.08 1543.23,1642.24 1543.92,1644.43 1544.61,1646.65 1545.3,1648.9 1545.99,1651.17 1546.68,1653.44 1547.37,1655.71 1548.06,1657.97 1548.74,1660.2 1549.43,1662.38 1550.12,1664.48 1550.81,1666.46 1551.5,1668.28 1552.19,1669.85 1552.88,1671.09 1553.57,1671.89 1554.25,1672.18 1554.94,1671.91 1555.63,1671.12 1556.32,1669.9 1557.01,1668.34 1557.7,1666.54 1558.38,1664.57 1559.07,1662.48 1559.76,1660.32 1560.45,1658.1 1561.14,1655.85 1561.82,1653.6 1562.51,1651.34 1563.2,1649.09 1563.89,1646.87 1564.57,1644.67 1565.26,1642.5 1565.95,1640.37 1566.64,1638.28 1567.32,1636.24 1568.01,1634.25 1568.7,1632.32 1569.38,1630.44 1570.07,1628.63 1570.76,1626.88 1571.45,1625.2 1572.13,1623.59 1572.82,1622.05 1573.51,1620.58 1574.19,1619.19 1574.88,1617.88 1575.56,1616.65 1576.25,1615.51 1576.94,1614.45 1577.62,1613.47 1578.31,1612.58 1579,1611.78 1579.68,1611.07 1580.37,1610.45 1581.06,1609.92 1581.74,1609.48 1582.43,1609.13 1583.11,1608.88 1583.8,1608.72 1584.48,1608.65 1585.17,1608.68 1585.86,1608.8 1586.54,1609.02 1587.23,1609.33 1587.91,1609.73 1588.6,1610.22 1589.28,1610.8 1589.97,1611.47 1590.66,1612.24 1591.34,1613.09 1592.03,1614.03 1592.71,1615.05 1593.4,1616.16 1594.08,1617.35 1594.77,1618.62 1595.45,1619.97 1596.14,1621.39 1596.82,1622.89 1597.51,1624.46 1598.19,1626.1 1598.88,1627.81 1599.56,1629.58 1600.25,1631.41 1600.93,1633.3 1601.62,1635.24 1602.3,1637.23 1602.99,1639.26 1603.67,1641.33 1604.36,1643.44 1605.04,1645.57 1605.73,1647.73 1606.41,1649.9 1607.1,1652.07 1607.78,1654.23 1608.47,1656.37 1609.15,1658.47 1609.84,1660.5 1610.52,1662.44 1611.21,1664.25 1611.89,1665.88 1612.57,1667.27 1613.26,1668.36 1613.94,1669.07 1614.63,1669.35 1615.31,1669.17 1616,1668.56 1616.68,1667.55 1617.37,1666.22 1618.05,1664.63 1618.74,1662.85 1619.42,1660.92 1620.1,1658.89 1620.79,1656.79 1621.47,1654.64 1622.16,1652.47 1622.84,1650.27 1623.53,1648.08 1624.21,1645.89 1624.89,1643.72 1625.58,1641.58 1626.26,1639.46 1626.95,1637.38 1627.63,1635.34 1628.32,1633.35 1629,1631.41 1629.69,1629.52 1630.37,1627.69 1631.05,1625.92 1631.74,1624.21 1632.42,1622.57 1633.11,1620.99 1633.79,1619.49 1634.48,1618.06 1635.16,1616.71 1635.84,1615.43 1636.53,1614.24 1637.21,1613.13 1637.9,1612.09 1638.58,1611.15 1639.27,1610.29 1639.95,1609.51 1640.64,1608.83 1641.32,1608.23 1642,1607.72 1642.69,1607.3 1643.37,1606.98 1644.06,1606.74 1644.74,1606.6 1645.43,1606.54 1646.11,1606.58 1646.8,1606.71 1647.48,1606.94 1648.16,1607.25 1648.85,1607.66 1649.53,1608.15 1650.22,1608.73 1650.9,1609.41 1651.59,1610.17 1652.27,1611.02 1652.96,1611.95 1653.64,1612.97 1654.33,1614.07 1655.01,1615.25 1655.7,1616.52 1656.38,1617.86 1657.06,1619.28 1657.75,1620.77 1658.43,1622.34 1659.12,1623.97 1659.8,1625.68 1660.49,1627.46 1661.17,1629.29 1661.86,1631.19 1662.54,1633.15 1663.23,1635.17 1663.91,1637.24 1664.6,1639.37 1665.28,1641.54 1665.97,1643.76 1666.65,1646.02 1667.34,1648.32 1668.03,1650.66 1668.71,1653.03 1669.4,1655.44 1670.08,1657.86 1670.77,1660.31 1671.45,1662.78 1672.14,1665.26 1672.82,1667.73 1673.51,1670.21 1674.19,1672.65 1674.88,1675.04 1675.57,1677.31 1676.25,1679.3 1676.94,1680.61 1677.62,1680.58 1678.31,1679.25 1678.99,1677.26 1679.68,1675.02 1680.37,1672.66 1681.05,1670.26 1681.74,1667.84 1682.43,1665.43 1683.11,1663.02 1683.8,1660.63 1684.48,1658.27 1685.17,1655.94 1685.86,1653.63 1686.54,1651.37 1687.23,1649.14 1687.92,1646.96 1688.6,1644.82 1689.29,1642.73 1689.98,1640.69 1690.66,1638.71 1691.35,1636.77 1692.04,1634.9 1692.72,1633.08 1693.41,1631.32 1694.1,1629.63 1694.78,1628 1695.47,1626.43 1696.16,1624.93 1696.85,1623.5 1697.53,1622.14 1698.22,1620.85 1698.91,1619.64 1699.6,1618.49 1700.28,1617.42 1700.97,1616.42 1701.66,1615.5 1702.35,1614.65 1703.04,1613.88 1703.72,1613.18 1704.41,1612.57 1705.1,1612.02 1705.79,1611.55 1706.48,1611.16 1707.16,1610.85 1707.85,1610.61 1708.54,1610.45 1709.23,1610.36 1709.92,1610.34 1710.61,1610.4 1711.3,1610.53 1711.99,1610.73 1712.67,1611 1713.36,1611.34 1714.05,1611.75 1714.74,1612.22 1715.43,1612.76 1716.12,1613.37 1716.81,1614.03 1717.5,1614.76 1718.19,1615.55 1718.88,1616.39 1719.57,1617.29 1720.26,1618.24 1720.95,1619.24 1721.64,1620.29 1722.33,1621.39 1723.02,1622.54 1723.71,1623.72 1724.4,1624.95 1725.09,1626.21 1725.78,1627.51 1726.47,1628.84 1727.16,1630.21 1727.85,1631.6 1728.54,1633.02 1729.23,1634.46 1729.93,1635.92 1730.62,1637.4 1731.31,1638.89 1732,1640.4 1732.69,1641.91 1733.38,1643.44 1734.07,1644.97 1734.77,1646.5 1735.46,1648.03 1736.15,1649.56 1736.84,1651.08 1737.54,1652.59 1738.23,1654.09 1738.92,1655.58 1739.61,1657.06 1740.31,1658.51 1741,1659.95 1741.69,1661.36 1742.38,1662.75 1743.08,1664.11 1743.77,1665.44 1744.46,1666.73 1745.16,1668 1745.85,1669.22 1746.54,1670.41 1747.24,1671.56 1747.93,1672.67 1748.63,1673.73 1749.32,1674.75 1750.01,1675.72 1750.71,1676.64 1751.4,1677.51 1752.1,1678.33 1752.79,1679.1 1753.49,1679.82 1754.18,1680.48 1754.88,1681.09 1755.57,1681.64 1756.27,1682.14 1756.96,1682.59 1757.66,1682.99 1758.35,1683.34 1759.05,1683.65 1759.75,1683.93 1760.44,1684.18 1761.14,1684.43 1761.84,1684.67 1762.53,1684.92 1763.23,1684.81 1763.93,1684.51 1764.62,1684.18 1765.32,1683.81 1766.02,1683.39 1766.71,1682.92 1767.41,1682.41 1768.11,1681.84 1768.81,1681.23 1769.5,1680.57 1770.2,1679.85 1770.9,1679.08 1771.6,1678.27 1772.3,1677.41 1773,1676.5 1773.69,1675.54 1774.39,1674.54 1775.09,1673.49 1775.79,1672.41 1776.49,1671.28 1777.19,1670.11 1777.89,1668.91 1778.59,1667.68 1779.29,1666.41 1779.99,1665.11 1780.69,1663.79 1781.39,1662.43 1782.09,1661.06 1782.79,1659.66 1783.49,1658.24 1784.19,1656.81 1784.89,1655.36 1785.59,1653.9 1786.3,1652.44 1787,1650.96 1787.7,1649.48 1788.4,1648 1789.1,1646.52 1789.81,1645.05 1790.51,1643.58 1791.21,1642.12 1791.91,1640.67 1792.62,1639.23 1793.32,1637.81 1794.02,1636.41 1794.73,1635.03 1795.43,1633.68 1796.13,1632.35 1796.84,1631.05 1797.54,1629.79 1798.24,1628.56 1798.95,1627.36 1799.65,1626.2 1800.36,1625.09 1801.06,1624.01 1801.77,1622.99 1802.47,1622.01 1803.18,1621.08 1803.88,1620.2 1804.59,1619.37 1805.3,1618.6 1806,1617.89 1806.71,1617.24 1807.42,1616.65 1808.12,1616.12 1808.83,1615.65 1809.54,1615.25 1810.24,1614.91 1810.95,1614.65 1811.66,1614.45 1812.37,1614.32 1813.07,1614.26 1813.78,1614.27 1814.49,1614.35 1815.2,1614.51 1815.91,1614.74 1816.62,1615.05 1817.33,1615.43 1818.04,1615.88 1818.74,1616.41 1819.45,1617.01 1820.16,1617.69 1820.87,1618.44 1821.58,1619.26 1822.3,1620.16 1823.01,1621.13 1823.72,1622.17 1824.43,1623.28 1825.14,1624.47 1825.85,1625.72 1826.56,1627.04 1827.27,1628.43 1827.99,1629.89 1828.7,1631.4 1829.41,1632.99 1830.12,1634.63 1830.84,1636.33 1831.55,1638.09 1832.26,1639.91 1832.98,1641.78 1833.69,1643.7 1834.41,1645.66 1835.12,1647.68 1835.83,1649.73 1836.55,1651.83 1837.26,1653.96 1837.98,1656.12 1838.7,1658.31 1839.41,1660.51 1840.13,1662.74 1840.84,1664.96 1841.56,1667.18 1842.28,1669.37 1842.99,1671.51 1843.71,1673.54 1844.43,1675.39 1845.14,1676.91 1845.86,1677.88 1846.58,1678.04 1847.3,1677.34 1848.02,1675.98 1848.73,1674.21 1849.45,1672.2 1850.17,1670.05 1850.89,1667.82 1851.61,1665.55 1852.33,1663.25 1853.05,1660.94 1853.77,1658.64 1854.49,1656.35 1855.21,1654.07 1855.93,1651.82 1856.66,1649.59 1857.38,1647.4 1858.1,1645.24 1858.82,1643.13 1859.54,1641.05 1860.27,1639.03 1860.99,1637.05 1861.71,1635.12 1862.43,1633.25 1863.16,1631.44 1863.88,1629.69 1864.61,1628 1865.33,1626.38 1866.05,1624.83 1866.78,1623.34 1867.5,1621.93 1868.23,1620.59 1868.96,1619.33 1869.68,1618.15 1870.41,1617.04 1871.13,1616.02 1871.86,1615.08 1872.59,1614.22 1873.31,1613.45 1874.04,1612.76 1874.77,1612.17 1875.5,1611.66 1876.23,1611.24 1876.96,1610.91 1877.68,1610.67 1878.41,1610.52 1879.14,1610.46 1879.87,1610.49 1880.6,1610.62 1881.33,1610.84 1882.06,1611.14 1882.79,1611.54 1883.53,1612.03 1884.26,1612.61 1884.99,1613.28 1885.72,1614.04 1886.45,1614.89 1887.19,1615.82 1887.92,1616.84 1888.65,1617.94 1889.38,1619.13 1890.12,1620.4 1890.85,1621.75 1891.59,1623.18 1892.32,1624.68 1893.06,1626.26 1893.79,1627.91 1894.53,1629.64 1895.26,1631.43 1896,1633.29 1896.74,1635.21 1897.47,1637.19 1898.21,1639.23 1898.95,1641.33 1899.69,1643.49 1900.42,1645.69 1901.16,1647.94 1901.9,1650.24 1902.64,1652.58 1903.38,1654.96 1904.12,1657.37 1904.86,1659.81 1905.6,1662.29 1906.34,1664.79 1907.08,1667.31 1907.82,1669.85 1908.56,1672.41 1909.3,1674.97 1910.05,1677.54 1910.79,1680.1 1911.53,1682.58 1912.28,1683.95 1913.02,1681.88 1913.76,1679.37 1914.51,1676.83 1915.25,1674.3 1916,1671.77 1916.74,1669.27 1917.49,1666.79 1918.23,1664.33 1918.98,1661.91 1919.73,1659.52 1920.47,1657.18 1921.22,1654.87 1921.97,1652.61 1922.72,1650.4 1923.46,1648.24 1924.21,1646.13 1924.96,1644.08 1925.71,1642.1 1926.46,1640.17 1927.21,1638.32 1927.96,1636.53 1928.71,1634.81 1929.46,1633.17 1930.22,1631.6 1930.97,1630.11 1931.72,1628.7 1932.47,1627.38 1933.23,1626.14 1933.98,1624.99 1934.73,1623.92 1935.49,1622.95 1936.24,1622.07 1937,1621.28 1937.75,1620.59 1938.51,1619.99 1939.27,1619.49 1940.02,1619.09 1940.78,1618.78 1941.54,1618.58 1942.29,1618.47 1943.05,1618.47 1943.81,1618.56 1944.57,1618.76 1945.33,1619.06 1946.09,1619.46 1946.85,1619.95 1947.61,1620.55 1948.37,1621.25 1949.13,1622.05 1949.89,1622.94 1950.65,1623.93 1951.42,1625.02 1952.18,1626.2 1952.94,1627.47 1953.71,1628.84 1954.47,1630.3 1955.23,1631.84 1956,1633.47 1956.77,1635.19 1957.53,1636.99 1958.3,1638.87 1959.06,1640.82 1959.83,1642.86 1960.6,1644.96 1961.37,1647.14 1962.13,1649.38 1962.9,1651.68 1963.67,1654.05 1964.44,1656.48 1965.21,1658.96 1965.98,1661.49 1966.75,1664.07 1967.52,1666.7 1968.3,1669.36 1969.07,1672.05 1969.84,1674.77 1970.61,1677.5 1971.39,1680.19 1972.16,1682.62 1972.94,1682.93 1973.71,1680.6 1974.49,1677.86 1975.26,1675.03 1976.04,1672.16 1976.82,1669.29 1977.59,1666.41 1978.37,1663.54 1979.15,1660.67 1979.93,1657.82 1980.71,1654.98 1981.49,1652.17 1982.27,1649.39 1983.05,1646.63 1983.83,1643.91 1984.61,1641.23 1985.39,1638.59 1986.17,1636 1986.96,1633.46 1987.74,1630.97 1988.52,1628.54 1989.31,1626.17 1990.09,1623.87 1990.88,1621.63 1991.66,1619.47 1992.45,1617.38 1993.24,1615.36 1994.03,1613.43 1994.81,1611.59 1995.6,1609.83 1996.39,1608.16 1997.18,1606.58 1997.97,1605.1 1998.76,1603.72 1999.55,1602.43 2000.34,1601.25 2001.14,1600.18 2001.93,1599.21 2002.72,1598.34 2003.51,1597.59 2004.31,1596.95 2005.1,1596.43 2005.9,1596.01 2006.69,1595.72 2007.49,1595.53 2008.29,1595.47 2009.08,1595.53 2009.88,1595.7 2010.68,1595.99 2011.48,1596.4 2012.28,1596.93 2013.08,1597.58 2013.88,1598.35 2014.68,1599.24 2015.48,1600.24 2016.29,1601.36 2017.09,1602.6 2017.89,1603.95 2018.7,1605.41 2019.5,1606.99 2020.31,1608.68 2021.11,1610.48 2021.92,1612.38 2022.72,1614.39 2023.53,1616.5 2024.34,1618.71 2025.15,1621.01 2025.96,1623.41 2026.77,1625.89 2027.58,1628.47 2028.39,1631.12 2029.2,1633.85 2030.01,1636.66 2030.83,1639.52 2031.64,1642.45 2032.45,1645.42 2033.27,1648.44 2034.08,1651.48 2034.9,1654.53 2035.71,1657.57 2036.53,1660.55 2037.35,1663.44 2038.17,1666.15 2038.99,1668.57 2039.81,1670.5 2040.63,1671.7 2041.45,1671.95 2042.27,1671.16 2043.09,1669.48 2043.91,1667.15 2044.74,1664.37 2045.56,1661.31 2046.39,1658.06 2047.21,1654.69 2048.04,1651.23 2048.86,1647.72 2049.69,1644.18 2050.52,1640.62 2051.35,1637.06 2052.18,1633.51 2053.01,1629.97 2053.84,1626.45 2054.67,1622.97 2055.5,1619.52 2056.33,1616.12 2057.17,1612.77 2058,1609.47 2058.84,1606.23 2059.67,1603.06 2060.51,1599.96 2061.35,1596.93 2062.18,1593.98 2063.02,1591.11 2063.86,1588.33 2064.7,1585.64 2065.54,1583.05 2066.38,1580.55 2067.22,1578.16 2068.07,1575.87 2068.91,1573.7 2069.75,1571.63 2070.6,1569.68 2071.44,1567.85 2072.29,1566.13 2073.14,1564.54 2073.99,1563.08 2074.83,1561.74 2075.68,1560.54 2076.53,1559.46 2077.38,1558.52 2078.24,1557.71 2079.09,1557.05 2079.94,1556.51 2080.8,1556.12 2081.65,1555.87 2082.51,1555.75 2083.36,1555.78 2084.22,1555.95 2085.08,1556.26 2085.94,1556.71 2086.8,1557.3 2087.66,1558.03 2088.52,1558.91 2089.38,1559.92 2090.24,1561.07 2091.1,1562.36 2091.97,1563.78 2092.83,1565.34 2093.7,1567.04 2094.57,1568.86 2095.43,1570.81 2096.3,1572.89 2097.17,1575.1 2098.04,1577.42 2098.91,1579.87 2099.79,1582.43 2100.66,1585.11 2101.53,1587.89 2102.41,1590.79 2103.28,1593.79 2104.16,1596.89 2105.04,1600.08 2105.91,1603.37 2106.79,1606.74 2107.67,1610.2 2108.55,1613.74 2109.43,1617.36 2110.32,1621.04 2111.2,1624.79 2112.08,1628.6 2112.97,1632.47 2113.86,1636.38 2114.74,1640.34 2115.63,1644.33 2116.52,1648.35 2117.41,1652.39 2118.3,1656.43 2119.19,1660.46 2120.08,1664.46 2120.98,1668.37 2121.87,1672.11 2122.77,1675.46 2123.66,1677.82 2124.56,1678.11 2125.46,1676.14 2126.36,1673 2127.26,1669.39 2128.16,1665.59 2129.06,1661.72 2129.97,1657.82 2130.87,1653.94 2131.78,1650.07 2132.68,1646.25 2133.59,1642.48 2134.5,1638.76 2135.41,1635.1 2136.32,1631.52 2137.23,1628.01 2138.14,1624.58 2139.06,1621.24 2139.97,1617.99 2140.89,1614.84 2141.8,1611.78 2142.72,1608.84 2143.64,1606 2144.56,1603.28 2145.48,1600.67 2146.41,1598.19 2147.33,1595.83 2148.25,1593.6 2149.18,1591.5 2150.11,1589.54 2151.03,1587.71 2151.96,1586.02 2152.89,1584.48 2153.82,1583.08 2154.76,1581.83 2155.69,1580.73 2156.62,1579.78 2157.56,1578.98 2158.5,1578.33 2159.44,1577.84 2160.38,1577.51 2161.32,1577.33 2162.26,1577.32 2163.2,1577.46 2164.14,1577.75 2165.09,1578.21 2166.04,1578.82 2166.98,1579.59 2167.93,1580.52 2168.88,1581.6 2169.84,1582.84 2170.79,1584.23 2171.74,1585.77 2172.7,1587.47 2173.65,1589.31 2174.61,1591.29 2175.57,1593.42 2176.53,1595.7 2177.49,1598.11 2178.46,1600.65 2179.42,1603.33 2180.39,1606.14 2181.35,1609.07 2182.32,1612.12 2183.29,1615.3 2184.26,1618.58 2185.24,1621.97 2186.21,1625.47 2187.18,1629.07 2188.16,1632.75 2189.14,1636.53 2190.12,1640.39 2191.1,1644.32 2192.08,1648.31 2193.06,1652.37 2194.05,1656.46 2195.04,1660.57 2196.02,1664.67 2197.01,1668.71 2198,1672.56 2199,1675.9 2199.99,1677.89 2200.98,1677.33 2201.98,1674.6 2202.98,1670.89 2203.98,1666.79 2204.98,1662.51 2205.98,1658.13 2206.99,1653.72 2207.99,1649.28 2209,1644.85 2210.01,1640.43 2211.02,1636.03 2212.03,1631.66 2213.05,1627.34 2214.06,1623.06 2215.08,1618.84 2216.1,1614.68 2217.12,1610.59 2218.14,1606.58 2219.16,1602.65 2220.19,1598.81 2221.22,1595.06 2222.24,1591.41 2223.27,1587.87 2224.31,1584.44 2225.34,1581.13 2226.38,1577.93 2227.41,1574.87 2228.45,1571.94 2229.49,1569.14 2230.54,1566.49 2231.58,1563.99 2232.63,1561.63 2233.67,1559.43 2234.72,1557.39 2235.78,1555.51 2236.83,1553.8 2237.88,1552.26 2238.94,1550.89 2240,1549.7 2241.06,1548.69 2242.12,1547.85 2243.19,1547.21 2244.26,1546.75 2245.32,1546.47 2246.39,1546.39 2247.47,1546.5 2248.54,1546.8 2249.62,1547.29 2250.7,1547.98 2251.78,1548.87 2252.86,1549.95 2253.95,1551.22 2255.03,1552.69 2256.12,1554.35 2257.21,1556.21 2258.3,1558.26 2259.4,1560.5 2260.5,1562.93 2261.6,1565.54 2262.7,1568.35 2263.8,1571.33 2264.91,1574.5 2266.02,1577.84 2267.13,1581.36 2268.24,1585.05 2269.36,1588.9 2270.47,1592.92 2271.59,1597.09 2272.71,1601.41 2273.84,1605.87 2274.97,1610.48 2276.09,1615.21 2277.23,1620.07 2278.36,1625.03 2279.5,1630.08 2280.64,1635.22 2281.78,1640.4 2282.92,1645.59 2284.07,1650.74 2285.22,1655.76 2286.37,1660.47 2287.52,1664.59 2288.68,1667.57 2289.84,1668.7 2291,1667.51 2292.16,1664.34 2293.33,1659.9 2294.5,1654.7 2295.67,1649.05 2296.85,1643.12 2298.03,1637.01 2299.21,1630.77 2300.39,1624.45 2301.58,1618.06 2302.77,1611.64 2303.96,1605.19 2305.15,1598.74 2306.35,1592.29 2307.55,1585.86 2308.76,1579.46 2309.96,1573.09 2311.17,1566.77 2312.39,1560.5 2313.6,1554.3 2314.82,1548.17 2316.04,1542.11 2317.27,1536.15 2318.5,1530.28 2319.73,1524.51 2320.97,1518.85 2322.2,1513.31 2323.45,1507.9 2324.69,1502.61 2325.94,1497.46 2327.19,1492.46 2328.45,1487.61 2329.71,1482.92 2330.97,1478.39 2332.24,1474.03 2333.5,1469.85 2334.78,1465.84 2336.05,1462.02 2337.34,1458.4 2338.62,1454.97 2339.91,1451.74 2341.2,1448.71 2342.49,1445.89 2343.79,1443.29 2345.1,1440.9 2346.41,1438.74 2347.72,1436.79 2349.03,1435.08 2350.35,1433.59 2351.67,1432.33 2353,1431.31 2354.33,1430.52 2355.67,1429.97 2357.01,1429.66 2358.36,1429.59 2359.7,1429.76 2361.06,1430.16 2362.42,1430.81 2363.78,1431.7 2365.15,1432.83 2366.52,1434.2 2367.9,1435.8 2369.28,1437.65 2370.66,1439.73 2372.05,1442.04 2373.45,1444.58 2374.85,1447.35 2376.26,1450.35 2377.67,1453.57 2379.08,1457.01 2380.5,1460.67 2381.93,1464.54 2383.36,1468.62 2384.8,1472.9 2386.24,1477.38 2387.69,1482.05 2389.15,1486.92 2390.61,1491.96 2392.07,1497.19 2393.54,1502.59 2395.02,1508.15 2396.5,1513.87 2397.99,1519.75 2399.49,1525.77 2400.99,1531.93 2402.5,1538.22 2404.01,1544.64 2405.53,1551.17 2407.06,1557.82 2408.59,1564.56 2410.14,1571.4 2411.68,1578.33 2413.24,1585.33 2414.8,1592.4 2416.37,1599.53 2417.95,1606.72 2419.53,1613.94 2421.12,1621.2 2422.72,1628.49 2424.33,1635.79 2425.94,1643.1 2427.57,1650.41 2429.2,1657.71 2430.84,1664.99 2432.48,1672.24 2434.14,1679.46 2435.81,1683.38 2437.48,1676.27 2439.16,1669.22 2440.85,1662.24 2442.55,1655.35 2444.27,1648.55 2445.99,1641.85 2447.72,1635.25 2449.46,1628.78 2451.21,1622.42 2452.97,1616.2 2454.74,1610.13 2456.52,1604.2 2458.31,1598.42 2460.12,1592.82 2461.93,1587.38 2463.76,1582.12 2465.6,1577.05 2467.45,1572.17 2469.32,1567.49 2471.19,1563.02 2473.08,1558.76 2474.99,1554.71 2476.9,1550.89 2478.83,1547.3 2480.78,1543.94 2482.74,1540.82 2484.71,1537.94 2486.7,1535.31 2488.71,1532.93 2490.73,1530.8 2492.76,1528.93 2494.82,1527.33 2496.89,1525.98 2498.98,1524.9 2501.09,1524.09 2503.21,1523.55 2505.36,1523.28 2507.52,1523.27 2509.71,1523.54 2511.91,1524.09 2514.14,1524.9 2516.39,1525.98 2518.67,1527.34 2520.96,1528.96 2523.28,1530.85 2525.63,1533.01 2528,1535.42 2530.41,1538.1 2532.83,1541.04 2535.29,1544.23 2537.78,1547.66 2540.3,1551.35 2542.85,1555.27 2545.44,1559.43 2548.06,1563.82 2550.72,1568.44 2553.42,1573.27 2556.15,1578.32 2558.93,1583.58 2561.76,1589.03 2564.63,1594.68 2567.55,1600.51 2570.52,1606.52 2573.55,1612.69 2576.64,1619.03 2579.79,1625.52 2583,1632.15 2586.28,1638.91 2589.64,1645.79 2593.08,1652.79 2596.6,1659.9 2600.22,1667.09 2603.94,1674.37 2607.76,1681.72 2611.71,1680.87 2615.79,1673.4 2620.02,1665.9 2624.42,1658.37 2629,1650.83 2633.79,1643.28 2638.83,1635.74 2644.15,1628.22 2649.82,1620.73 2655.91,1613.29 2662.52,1605.9 2669.84,1598.58 2678.15,1591.35 2688,1584.2 2700.83,1577.16 " />
</g>

<g fill="none" stroke="#ff0000" stroke-opacity="1" stroke-width="4" stroke-linecap="butt" stroke-linejoin="miter" stroke-miterlimit="2" transform="matrix(0.510343,0,0,0.521623,-153.134,-51.184)"
font-family="Times New Roman" font-size="40" font-weight="700" font-style="normal" 
>
<path vector-effect="none" fill-rule="evenodd" d="M919.106,187.53 C919.106,182.008 914.628,177.53 909.106,177.53 C903.583,177.53 899.106,182.008 899.106,187.53 C899.106,193.053 903.583,197.53 909.106,197.53 C914.628,197.53 919.106,193.053 919.106,187.53 "/>
</g>

<g fill="#212121" fill-opacity="1" stroke="#212121" stroke-opacity="1" stroke-width="1" stroke-linecap="square" stroke-linejoin="bevel" transform="matrix(0.510343,0,0,0.521623,310.822,51.3309)"
font-family="Helvetica" font-size="32" font-weight="400" font-style="normal" 
>
<text fill="#212121" fill-opacity="1" stroke="none" xml:space="preserve" x="0" y="-0.359375" font-family="Helvetica" font-size="32" font-weight="400" font-style="normal" 
 >4.8525</text>
</g>

<g fill="#0000ff" fill-opacity="1" stroke="#0000ff" stroke-opacity="1" stroke-width="6" stroke-linecap="butt" stroke-linejoin="round" transform="matrix(0.510343,0,0,0.521623,-153.134,-51.184)"
font-family="Helvetica" font-size="32" font-weight="400" font-style="normal" 
>
<polyline fill="none" vector-effect="none" points="906.609,1685 906.609,1376.4 " />
</g>

<g fill="none" stroke="#0000ff" stroke-opacity="1" stroke-width="6" stroke-linecap="butt" stroke-linejoin="miter" stroke-miterlimit="2" transform="matrix(0.510343,0,0,0.521623,-153.134,-51.184)"
font-family="Helvetica" font-size="32" font-weight="400" font-style="normal" 
>
<path vector-effect="none" fill-rule="evenodd" d="M912.609,1376.4 C912.609,1373.09 909.923,1370.4 906.609,1370.4 C903.295,1370.4 900.609,1373.09 900.609,1376.4 C900.609,1379.71 903.295,1382.4 906.609,1382.4 C909.923,1382.4 912.609,1379.71 912.609,1376.4 "/>
</g>

<g fill="#ff0000" fill-opacity="1" stroke="#ff0000" stroke-opacity="1" stroke-width="3" stroke-linecap="butt" stroke-linejoin="round" transform="matrix(0.510343,0,0,0.521623,-153.134,-51.184)"
font-family="Helvetica" font-size="32" font-weight="400" font-style="normal" 
>
<polyline fill="none" vector-effect="none" points="2609.5,1685 2609.5,1615.7 " />
<polyline fill="none" vector-effect="none" points="1762.75,1685 1762.75,1603 " />
<polyline fill="none" vector-effect="none" points="1456.98,1685 1456.98,1594.84 " />
<polyline fill="none" vector-effect="none" points="2435.43,1685 2435.43,1548.15 " />
</g>

<g fill="none" stroke="#ff0000" stroke-opacity="1" stroke-width="3" stroke-linecap="butt" stroke-linejoin="miter" stroke-miterlimit="2" transform="matrix(0.510343,0,0,0.521623,-153.134,-51.184)"
font-family="Helvetica" font-size="32" font-weight="400" font-style="normal" 
>
<path vector-effect="none" fill-rule="evenodd" d="M2615.5,1615.7 C2615.5,1612.39 2612.81,1609.7 2609.5,1609.7 C2606.18,1609.7 2603.5,1612.39 2603.5,1615.7 C2603.5,1619.02 2606.18,1621.7 2609.5,1621.7 C2612.81,1621.7 2615.5,1619.02 2615.5,1615.7 "/>
</g>

<g fill="none" stroke="#ff0000" stroke-opacity="1" stroke-width="3" stroke-linecap="butt" stroke-linejoin="miter" stroke-miterlimit="2" transform="matrix(0.510343,0,0,0.521623,-153.134,-51.184)"
font-family="Helvetica" font-size="32" font-weight="400" font-style="normal" 
>
<path vector-effect="none" fill-rule="evenodd" d="M1768.75,1603 C1768.75,1599.69 1766.06,1597 1762.75,1597 C1759.43,1597 1756.75,1599.69 1756.75,1603 C1756.75,1606.31 1759.43,1609 1762.75,1609 C1766.06,1609 1768.75,1606.31 1768.75,1603 "/>
</g>

<g fill="none" stroke="#ff0000" stroke-opacity="1" stroke-width="3" stroke-linecap="butt" stroke-linejoin="miter" stroke-miterlimit="2" transform="matrix(0.510343,0,0,0.521623,-153.134,-51.184)"
font-family="Helvetica" font-size="32" font-weight="400" font-style="normal" 
>
<path vector-effect="none" fill-rule="evenodd" d="M1462.98,1594.84 C1462.98,1591.52 1460.3,1588.84 1456.98,1588.84 C1453.67,1588.84 1450.98,1591.52 1450.98,1594.84 C1450.98,1598.15 1453.67,1600.84 1456.98,1600.84 C1460.3,1600.84 1462.98,1598.15 1462.98,1594.84 "/>
</g>

<g fill="none" stroke="#ff0000" stroke-opacity="1" stroke-width="3" stroke-linecap="butt" stroke-linejoin="miter" stroke-miterlimit="2" transform="matrix(0.510343,0,0,0.521623,-153.134,-51.184)"
font-family="Helvetica" font-size="32" font-weight="400" font-style="normal" 
>
<path vector-effect="none" fill-rule="evenodd" d="M2441.43,1548.15 C2441.43,1544.83 2438.74,1542.15 2435.43,1542.15 C2432.11,1542.15 2429.43,1544.83 2429.43,1548.15 C2429.43,1551.46 2432.11,1554.15 2435.43,1554.15 C2438.74,1554.15 2441.43,1551.46 2441.43,1548.15 "/>
</g>
</g>
</svg>
